<svg width="233.852099609375px" height="121.39999999999999px" xmlns="http://www.w3.org/2000/svg" viewBox="133.0739501953125 14.300000000000004 233.852099609375 121.39999999999999" style="background: rgba(0, 0, 0, 0);" preserveAspectRatio="xMidYMid"><defs><filter id="editing-vr"><feFlood flood-color="#f00" flood-opacity="0.7" result="c1"></feFlood><feFlood flood-color="#00f" flood-opacity="0.7" result="c3"></feFlood><feComposite operator="in" in="c1" in2="SourceAlpha" result="text-c1"></feComposite><feComposite operator="in" in="c3" in2="SourceAlpha" result="text-c3"></feComposite><feOffset in="text-c1" dx="5" dy="-1" result="text1"></feOffset><feOffset in="text-c3" dx="-5" dy="1" result="text3"></feOffset><feBlend in="SourceGraphic" in2="text1" mode="multiply" result="text4"></feBlend><feBlend in="text4" in2="text3" mode="multiply"></feBlend></filter></defs><g filter="url(#editing-vr)"><g transform="translate(173.7080898284912, 104.44000053405762)"><path d="M29.18 1.28L29.18 1.28L29.18 1.28Q20.99 1.28 20.22-10.37L20.22-10.37L9.22-10.37L9.22-10.37Q7.94-7.42 7.04-4.86L7.04-4.86L5.38 0L-3.58 0L16.58-42.24L30.34-42.24L33.02-11.14L33.02-11.14Q33.66-4.42 36.22-2.43L36.22-2.43L36.22-2.43Q34.37 1.28 29.18 1.28ZM14.72-23.17L11.20-15.04L20.03-15.04L19.26-31.49L19.26-33.22L14.72-23.17ZM69.76-4.38L69.76-4.38L69.76-4.38Q67.07-1.66 63.39-0.19L63.39-0.19L63.39-0.19Q59.71 1.28 56.06 1.28L56.06 1.28L56.06 1.28Q52.42 1.28 51.14 0.64L51.14 0.64L49.15 11.52L36.16 12.80L44.99-32.64L55.42-33.73L54.59-29.31L54.59-29.31Q57.28-33.86 62.85-33.86L62.85-33.86L62.85-33.86Q69.12-33.86 72.45-29.82L72.45-29.82L72.45-29.82Q75.39-26.18 75.39-20.61L75.39-20.61L75.39-20.61Q75.39-15.04 73.92-11.07L73.92-11.07L73.92-11.07Q72.45-7.10 69.76-4.38ZM55.30-22.34L51.90-3.58L51.90-3.58Q53.25-2.43 54.91-2.43L54.91-2.43L54.91-2.43Q56.58-2.43 57.54-3.07L57.54-3.07L57.54-3.07Q58.50-3.71 59.20-4.99L59.20-4.99L59.20-4.99Q61.12-8.45 62.66-18.94L62.66-18.94L62.66-18.94Q63.10-22.02 63.10-25.02L63.10-25.02L63.10-25.02Q63.10-28.03 62.43-28.99L62.43-28.99L62.43-28.99Q61.76-29.95 60.48-29.95L60.48-29.95L60.48-29.95Q56.58-29.95 55.30-22.34L55.30-22.34ZM94.53-3.52L94.53-3.52L94.53-3.52Q92.54 1.28 86.21 1.28L86.21 1.28L86.21 1.28Q83.01 1.28 80.96-0.96L80.96-0.96L80.96-0.96Q79.30-2.82 79.30-4.93L79.30-4.93L79.30-4.93Q79.30-9.73 81.54-20.22L81.54-20.22L86.21-44.80L99.20-46.08L92.99-13.70L92.99-13.70Q91.90-8.96 91.90-7.30L91.90-7.30L91.90-7.30Q91.90-3.65 94.53-3.52ZM115.26-3.52L115.26-3.52L115.26-3.52Q113.28 1.28 106.94 1.28L106.94 1.28L106.94 1.28Q103.74 1.28 101.70-0.96L101.70-0.96L101.70-0.96Q100.03-2.82 100.03-4.93L100.03-4.93L100.03-4.93Q100.03-9.73 102.27-20.22L102.27-20.22L106.94-44.80L119.94-46.08L113.73-13.70L113.73-13.70Q112.64-8.96 112.64-7.30L112.64-7.30L112.64-7.30Q112.64-3.65 115.26-3.52ZM146.62-10.82L146.62-10.82L146.62-10.82Q148.22-9.73 148.22-7.33L148.22-7.33L148.22-7.33Q148.22-4.93 147.01-3.39L147.01-3.39L147.01-3.39Q145.79-1.86 143.81-0.83L143.81-0.83L143.81-0.83Q139.71 1.28 135.30 1.28L135.30 1.28L135.30 1.28Q130.88 1.28 128.29 0.32L128.29 0.32L128.29 0.32Q125.70-0.64 123.97-2.43L123.97-2.43L123.97-2.43Q120.58-5.82 120.58-12.03L120.58-12.03L120.58-12.03Q120.58-21.70 125.82-27.58L125.82-27.58L125.82-27.58Q131.46-33.92 141.25-33.92L141.25-33.92L141.25-33.92Q147.33-33.92 150.34-31.36L150.34-31.36L150.34-31.36Q152.58-29.44 152.58-26.30L152.58-26.30L152.58-26.30Q152.58-15.04 133.12-15.04L133.12-15.04L133.12-15.04Q132.86-13.38 132.86-11.97L132.86-11.97L132.86-11.97Q132.86-9.02 134.18-7.90L134.18-7.90L134.18-7.90Q135.49-6.78 137.92-6.78L137.92-6.78L137.92-6.78Q140.35-6.78 142.94-7.90L142.94-7.90L142.94-7.90Q145.54-9.02 146.62-10.82ZM133.57-17.79L133.57-17.79L133.57-17.79Q138.11-17.79 140.74-20.61L140.74-20.61L140.74-20.61Q143.36-23.30 143.36-27.58L143.36-27.58L143.36-27.58Q143.36-29.06 142.82-29.86L142.82-29.86L142.82-29.86Q142.27-30.66 141.18-30.66L141.18-30.66L141.18-30.66Q140.10-30.66 139.17-30.24L139.17-30.24L139.17-30.24Q138.24-29.82 137.28-28.42L137.28-28.42L137.28-28.42Q134.91-25.22 133.57-17.79Z" fill="#444"></path></g></g><style>text {
  font-size: 64px;
  font-family: Arial Black;
  dominant-baseline: central;
  text-anchor: middle;
}</style></svg>