<svg width="259.089599609375px" height="121.39999999999999px" xmlns="http://www.w3.org/2000/svg" viewBox="120.4552001953125 14.300000000000004 259.089599609375 121.39999999999999" style="background: rgba(0, 0, 0, 0);" preserveAspectRatio="xMidYMid"><defs><linearGradient id="editing-shiny-gradient" x1="0.04322727117869957" x2="0.9567727288213004" y1="0.2966316784620999" y2="0.7033683215379001" gradientUnits="objectBoundingBox"><stop offset="0.0" stop-color="#ffb200"></stop><stop offset="0.5" stop-color="#e10057"></stop><stop offset="1.0" stop-color="#5A1A80"></stop></linearGradient><linearGradient id="editing-shiny-gradient2" x1="0" x2="0" y1="0" y2="1"><stop offset="0.2" stop-color="#fff" stop-opacity="0.8"></stop><stop offset="0.8" stop-color="#fff" stop-opacity="0"></stop></linearGradient><filter id="editing-shiny2" x="-100%" y="-100%" width="300%" height="300%"><feMorphology operator="erode" radius="2"></feMorphology></filter><filter id="editing-shiny" x="-100%" y="-100%" width="300%" height="300%"><feFlood flood-color="#fff" result="flood"></feFlood><feConvolveMatrix in="SourceGraphic" result="conv" order="8,8" divisor="1" kernelMatrix="0 0 0 0 0 0 0 0 0 0 0 1 1 0 0 0 0 0 0 1 1 0 0 0 0 0 1 0 0 1 0 0 0 0 1 0 0 1 0 0 0 1 0 0 0 0 1 0 0 1 1 0 0 1 1 0 0 0 0 1 1 0 0 0 "></feConvolveMatrix><feOffset dx="0" dy="4" in="conv" result="offset"></feOffset><feComposite operator="in" in="flood" in2="offset" result="comp"></feComposite><feGaussianBlur in="offset" stdDeviation="3" result="shadow"></feGaussianBlur><feColorMatrix in="shadow" type="matrix" values="0.7 0 0 0 0  0 0.7 0 0 0  0 0 0.7 0 0  0 0 0 0.3 0" result="dark-shadow"></feColorMatrix><feOffset dx="0" dy="4" in="dark-shadow" result="offset-shadow"></feOffset><feOffset dx="0" dy="2" in="conv" result="offset-2"></feOffset><feComposite operator="out" in="offset" in2="offset-2" result="edge-diff"></feComposite><feGaussianBlur in="edge-diff" stdDeviation="1" result="edge-blur"></feGaussianBlur><feColorMatrix in="edge-blur" result="edge-shadow" type="matrix" values="0 0 0 0 0  0 0 0 0 0  0 0 0 0 0  0 0 0 0.5 0"></feColorMatrix><feComposite operator="in" in="edge-shadow" in2="offset" result="edge-shadow-in"></feComposite><feOffset dx="0" dy="1" in="edge-shadow-in" result="edge-shadow-final"></feOffset><feMerge result="out"><feMergeNode in="offset-shadow"></feMergeNode><feMergeNode in="comp"></feMergeNode><feMergeNode in="edge-shadow-final"></feMergeNode><feMergeNode in="SourceGraphic"></feMergeNode></feMerge></filter></defs><g filter="url(#editing-shiny)"><g transform="translate(164.42809867858887, 104.44000053405762)"><path d="M29.18 1.28L29.18 1.28L29.18 1.28Q20.99 1.28 20.22-10.37L20.22-10.37L9.22-10.37L9.22-10.37Q7.94-7.42 7.04-4.86L7.04-4.86L5.38 0L-3.58 0L16.58-42.24L30.34-42.24L33.02-11.14L33.02-11.14Q33.66-4.42 36.22-2.43L36.22-2.43L36.22-2.43Q34.37 1.28 29.18 1.28ZM14.72-23.17L11.20-15.04L20.03-15.04L19.26-31.49L19.26-33.22L14.72-23.17ZM69.76-4.38L69.76-4.38L69.76-4.38Q67.07-1.66 63.39-0.19L63.39-0.19L63.39-0.19Q59.71 1.28 56.06 1.28L56.06 1.28L56.06 1.28Q52.42 1.28 51.14 0.64L51.14 0.64L49.15 11.52L36.16 12.80L44.99-32.64L55.42-33.73L54.59-29.31L54.59-29.31Q57.28-33.86 62.85-33.86L62.85-33.86L62.85-33.86Q69.12-33.86 72.45-29.82L72.45-29.82L72.45-29.82Q75.39-26.18 75.39-20.61L75.39-20.61L75.39-20.61Q75.39-15.04 73.92-11.07L73.92-11.07L73.92-11.07Q72.45-7.10 69.76-4.38ZM55.30-22.34L51.90-3.58L51.90-3.58Q53.25-2.43 54.91-2.43L54.91-2.43L54.91-2.43Q56.58-2.43 57.54-3.07L57.54-3.07L57.54-3.07Q58.50-3.71 59.20-4.99L59.20-4.99L59.20-4.99Q61.12-8.45 62.66-18.94L62.66-18.94L62.66-18.94Q63.10-22.02 63.10-25.02L63.10-25.02L63.10-25.02Q63.10-28.03 62.43-28.99L62.43-28.99L62.43-28.99Q61.76-29.95 60.48-29.95L60.48-29.95L60.48-29.95Q56.58-29.95 55.30-22.34L55.30-22.34ZM109.06-4.38L109.06-4.38L109.06-4.38Q106.37-1.66 102.69-0.19L102.69-0.19L102.69-0.19Q99.01 1.28 95.36 1.28L95.36 1.28L95.36 1.28Q91.71 1.28 90.43 0.64L90.43 0.64L88.45 11.52L75.46 12.80L84.29-32.64L94.72-33.73L93.89-29.31L93.89-29.31Q96.58-33.86 102.14-33.86L102.14-33.86L102.14-33.86Q108.42-33.86 111.74-29.82L111.74-29.82L111.74-29.82Q114.69-26.18 114.69-20.61L114.69-20.61L114.69-20.61Q114.69-15.04 113.22-11.07L113.22-11.07L113.22-11.07Q111.74-7.10 109.06-4.38ZM94.59-22.34L91.20-3.58L91.20-3.58Q92.54-2.43 94.21-2.43L94.21-2.43L94.21-2.43Q95.87-2.43 96.83-3.07L96.83-3.07L96.83-3.07Q97.79-3.71 98.50-4.99L98.50-4.99L98.50-4.99Q100.42-8.45 101.95-18.94L101.95-18.94L101.95-18.94Q102.40-22.02 102.40-25.02L102.40-25.02L102.40-25.02Q102.40-28.03 101.73-28.99L101.73-28.99L101.73-28.99Q101.06-29.95 99.78-29.95L99.78-29.95L99.78-29.95Q95.87-29.95 94.59-22.34L94.59-22.34ZM133.82-3.52L133.82-3.52L133.82-3.52Q131.84 1.28 125.50 1.28L125.50 1.28L125.50 1.28Q122.30 1.28 120.26-0.96L120.26-0.96L120.26-0.96Q118.59-2.82 118.59-4.93L118.59-4.93L118.59-4.93Q118.59-9.73 120.83-20.22L120.83-20.22L125.50-44.80L138.50-46.08L132.29-13.70L132.29-13.70Q131.20-8.96 131.20-7.30L131.20-7.30L131.20-7.30Q131.20-3.65 133.82-3.52ZM165.18-10.82L165.18-10.82L165.18-10.82Q166.78-9.73 166.78-7.33L166.78-7.33L166.78-7.33Q166.78-4.93 165.57-3.39L165.57-3.39L165.57-3.39Q164.35-1.86 162.37-0.83L162.37-0.83L162.37-0.83Q158.27 1.28 153.86 1.28L153.86 1.28L153.86 1.28Q149.44 1.28 146.85 0.32L146.85 0.32L146.85 0.32Q144.26-0.64 142.53-2.43L142.53-2.43L142.53-2.43Q139.14-5.82 139.14-12.03L139.14-12.03L139.14-12.03Q139.14-21.70 144.38-27.58L144.38-27.58L144.38-27.58Q150.02-33.92 159.81-33.92L159.81-33.92L159.81-33.92Q165.89-33.92 168.90-31.36L168.90-31.36L168.90-31.36Q171.14-29.44 171.14-26.30L171.14-26.30L171.14-26.30Q171.14-15.04 151.68-15.04L151.68-15.04L151.68-15.04Q151.42-13.38 151.42-11.97L151.42-11.97L151.42-11.97Q151.42-9.02 152.74-7.90L152.74-7.90L152.74-7.90Q154.05-6.78 156.48-6.78L156.48-6.78L156.48-6.78Q158.91-6.78 161.50-7.90L161.50-7.90L161.50-7.90Q164.10-9.02 165.18-10.82ZM152.13-17.79L152.13-17.79L152.13-17.79Q156.67-17.79 159.30-20.61L159.30-20.61L159.30-20.61Q161.92-23.30 161.92-27.58L161.92-27.58L161.92-27.58Q161.92-29.06 161.38-29.86L161.38-29.86L161.38-29.86Q160.83-30.66 159.74-30.66L159.74-30.66L159.74-30.66Q158.66-30.66 157.73-30.24L157.73-30.24L157.73-30.24Q156.80-29.82 155.84-28.42L155.84-28.42L155.84-28.42Q153.47-25.22 152.13-17.79Z" fill="url(#editing-shiny-gradient)"></path></g></g><g filter="url(#editing-shiny2)"><g transform="translate(164.42814445495605, 104.44000434875488)"><path d="M29.18 1.28L29.18 1.28L29.18 1.28Q20.99 1.28 20.22-10.37L20.22-10.37L9.22-10.37L9.22-10.37Q7.94-7.42 7.04-4.86L7.04-4.86L5.38 0L-3.58 0L16.58-42.24L30.34-42.24L33.02-11.14L33.02-11.14Q33.66-4.42 36.22-2.43L36.22-2.43L36.22-2.43Q34.37 1.28 29.18 1.28ZM14.72-23.17L11.20-15.04L20.03-15.04L19.26-31.49L19.26-33.22L14.72-23.17ZM69.76-4.38L69.76-4.38L69.76-4.38Q67.07-1.66 63.39-0.19L63.39-0.19L63.39-0.19Q59.71 1.28 56.06 1.28L56.06 1.28L56.06 1.28Q52.42 1.28 51.14 0.64L51.14 0.64L49.15 11.52L36.16 12.80L44.99-32.64L55.42-33.73L54.59-29.31L54.59-29.31Q57.28-33.86 62.85-33.86L62.85-33.86L62.85-33.86Q69.12-33.86 72.45-29.82L72.45-29.82L72.45-29.82Q75.39-26.18 75.39-20.61L75.39-20.61L75.39-20.61Q75.39-15.04 73.92-11.07L73.92-11.07L73.92-11.07Q72.45-7.10 69.76-4.38ZM55.30-22.34L51.90-3.58L51.90-3.58Q53.25-2.43 54.91-2.43L54.91-2.43L54.91-2.43Q56.58-2.43 57.54-3.07L57.54-3.07L57.54-3.07Q58.50-3.71 59.20-4.99L59.20-4.99L59.20-4.99Q61.12-8.45 62.66-18.94L62.66-18.94L62.66-18.94Q63.10-22.02 63.10-25.02L63.10-25.02L63.10-25.02Q63.10-28.03 62.43-28.99L62.43-28.99L62.43-28.99Q61.76-29.95 60.48-29.95L60.48-29.95L60.48-29.95Q56.58-29.95 55.30-22.34L55.30-22.34ZM109.06-4.38L109.06-4.38L109.06-4.38Q106.37-1.66 102.69-0.19L102.69-0.19L102.69-0.19Q99.01 1.28 95.36 1.28L95.36 1.28L95.36 1.28Q91.71 1.28 90.43 0.64L90.43 0.64L88.45 11.52L75.46 12.80L84.29-32.64L94.72-33.73L93.89-29.31L93.89-29.31Q96.58-33.86 102.14-33.86L102.14-33.86L102.14-33.86Q108.42-33.86 111.74-29.82L111.74-29.82L111.74-29.82Q114.69-26.18 114.69-20.61L114.69-20.61L114.69-20.61Q114.69-15.04 113.22-11.07L113.22-11.07L113.22-11.07Q111.74-7.10 109.06-4.38ZM94.59-22.34L91.20-3.58L91.20-3.58Q92.54-2.43 94.21-2.43L94.21-2.43L94.21-2.43Q95.87-2.43 96.83-3.07L96.83-3.07L96.83-3.07Q97.79-3.71 98.50-4.99L98.50-4.99L98.50-4.99Q100.42-8.45 101.95-18.94L101.95-18.94L101.95-18.94Q102.40-22.02 102.40-25.02L102.40-25.02L102.40-25.02Q102.40-28.03 101.73-28.99L101.73-28.99L101.73-28.99Q101.06-29.95 99.78-29.95L99.78-29.95L99.78-29.95Q95.87-29.95 94.59-22.34L94.59-22.34ZM133.82-3.52L133.82-3.52L133.82-3.52Q131.84 1.28 125.50 1.28L125.50 1.28L125.50 1.28Q122.30 1.28 120.26-0.96L120.26-0.96L120.26-0.96Q118.59-2.82 118.59-4.93L118.59-4.93L118.59-4.93Q118.59-9.73 120.83-20.22L120.83-20.22L125.50-44.80L138.50-46.08L132.29-13.70L132.29-13.70Q131.20-8.96 131.20-7.30L131.20-7.30L131.20-7.30Q131.20-3.65 133.82-3.52ZM165.18-10.82L165.18-10.82L165.18-10.82Q166.78-9.73 166.78-7.33L166.78-7.33L166.78-7.33Q166.78-4.93 165.57-3.39L165.57-3.39L165.57-3.39Q164.35-1.86 162.37-0.83L162.37-0.83L162.37-0.83Q158.27 1.28 153.86 1.28L153.86 1.28L153.86 1.28Q149.44 1.28 146.85 0.32L146.85 0.32L146.85 0.32Q144.26-0.64 142.53-2.43L142.53-2.43L142.53-2.43Q139.14-5.82 139.14-12.03L139.14-12.03L139.14-12.03Q139.14-21.70 144.38-27.58L144.38-27.58L144.38-27.58Q150.02-33.92 159.81-33.92L159.81-33.92L159.81-33.92Q165.89-33.92 168.90-31.36L168.90-31.36L168.90-31.36Q171.14-29.44 171.14-26.30L171.14-26.30L171.14-26.30Q171.14-15.04 151.68-15.04L151.68-15.04L151.68-15.04Q151.42-13.38 151.42-11.97L151.42-11.97L151.42-11.97Q151.42-9.02 152.74-7.90L152.74-7.90L152.74-7.90Q154.05-6.78 156.48-6.78L156.48-6.78L156.48-6.78Q158.91-6.78 161.50-7.90L161.50-7.90L161.50-7.90Q164.10-9.02 165.18-10.82ZM152.13-17.79L152.13-17.79L152.13-17.79Q156.67-17.79 159.30-20.61L159.30-20.61L159.30-20.61Q161.92-23.30 161.92-27.58L161.92-27.58L161.92-27.58Q161.92-29.06 161.38-29.86L161.38-29.86L161.38-29.86Q160.83-30.66 159.74-30.66L159.74-30.66L159.74-30.66Q158.66-30.66 157.73-30.24L157.73-30.24L157.73-30.24Q156.80-29.82 155.84-28.42L155.84-28.42L155.84-28.42Q153.47-25.22 152.13-17.79Z" fill="url(#editing-shiny-gradient2)"></path></g></g><style>text {
  font-size: 64px;
  font-family: Arial Black;
  dominant-baseline: central;
  text-anchor: middle;
}</style></svg>